<?xml version="1.0" standalone="no"?>
<!DOCTYPE svg PUBLIC "-//W3C//DTD SVG 20010904//EN"
 "http://www.w3.org/TR/2001/REC-SVG-20010904/DTD/svg10.dtd">
<svg version="1.0" xmlns="http://www.w3.org/2000/svg"
 width="512.000000pt" height="512.000000pt" viewBox="0 0 512.000000 512.000000"
 preserveAspectRatio="xMidYMid meet">

<g transform="translate(0.000000,512.000000) scale(0.100000,-0.100000)"
fill="#000000" stroke="none">
<path fill="#CD7537" d="M2255 4720 l-232 -231 -11 39 c-17 56 -82 152 -133 196 -24 21 -78
55 -119 74 -67 33 -85 37 -173 40 -111 5 -163 -6 -252 -52 -119 -62 -216 -191
-244 -324 -45 -214 62 -428 264 -528 l76 -38 -225 -225 c-178 -178 -227 -233
-232 -259 -7 -33 -2 -38 227 -267 128 -129 231 -236 228 -238 -2 -1 -38 -19
-80 -40 -139 -67 -234 -196 -261 -355 -31 -184 64 -385 230 -482 l60 -36 -106
-299 -106 -300 0 -100 -1 -100 174 -405 c173 -405 173 -405 180 -499 5 -81 9
-95 30 -112 32 -27 77 -24 106 6 22 21 25 33 25 102 0 43 -7 101 -14 128 -8
28 -83 210 -166 405 -83 195 -158 372 -166 394 -28 75 -20 113 94 437 l107
309 31 0 c171 0 345 112 421 269 21 42 39 78 40 80 2 3 33 -24 68 -59 l65 -64
0 -429 0 -428 25 -24 c32 -33 78 -33 110 0 l25 24 0 592 c0 435 3 603 12 633
16 55 99 138 154 154 86 25 162 9 228 -49 85 -75 80 -40 86 -694 7 -652 3
-620 86 -794 57 -120 74 -188 74 -291 0 -111 -20 -181 -93 -324 l-61 -121 -4
-112 c-4 -109 -4 -112 21 -137 34 -34 80 -34 112 -1 23 22 25 32 25 108 0 83
1 87 60 208 75 156 100 251 100 379 0 119 -22 212 -83 346 -52 114 -70 167
-65 190 2 13 11 9 43 -16 113 -92 305 -141 419 -108 55 16 138 99 154 154 8
28 12 123 12 285 l0 244 49 18 c122 43 235 154 282 275 27 71 36 203 19 281
-16 71 -57 154 -106 210 -44 51 -140 116 -196 133 l-39 11 231 232 c211 212
230 234 230 266 0 31 -21 55 -278 312 -229 229 -282 277 -305 277 -46 0 -66
-21 -87 -90 -25 -85 -68 -151 -122 -188 -208 -143 -483 -19 -505 227 -15 158
80 293 237 338 69 19 100 47 100 87 0 27 -34 65 -278 309 -256 255 -280 277
-312 277 -31 0 -53 -19 -265 -230z m449 -139 l178 -178 -44 -26 c-24 -14 -66
-50 -95 -79 -180 -191 -177 -482 7 -667 150 -149 370 -182 562 -85 63 32 151
114 185 172 l26 44 178 -178 179 -179 -265 -265 c-247 -247 -265 -268 -265
-301 0 -58 29 -76 130 -81 141 -7 237 -67 292 -183 23 -50 28 -73 28 -136 0
-64 -5 -85 -30 -137 -59 -118 -154 -177 -285 -177 -68 0 -89 4 -137 28 -72 36
-141 111 -164 180 -11 31 -17 79 -17 121 1 63 -1 72 -27 98 -43 42 -73 36
-141 -29 l-37 -35 -7 50 c-8 63 -52 156 -95 206 -167 190 -466 177 -620 -26
-49 -65 -71 -129 -77 -226 l-6 -83 -88 87 c-83 81 -91 86 -121 80 -53 -11 -62
-27 -69 -129 -7 -105 -34 -171 -96 -233 -120 -120 -327 -120 -448 1 -62 62
-90 135 -89 230 0 95 25 157 89 221 63 62 122 86 231 93 103 7 119 15 130 69
7 33 1 39 -262 303 l-269 269 257 258 c141 141 261 267 267 279 17 34 13 52
-18 84 -28 27 -35 29 -108 29 -61 0 -89 5 -129 24 -72 33 -129 88 -161 154
-39 81 -39 193 0 274 32 65 89 121 156 152 65 30 197 30 262 0 117 -54 180
-153 187 -293 5 -102 23 -131 81 -131 33 0 54 18 301 265 146 146 265 265 265
265 0 0 80 -80 179 -179z m351 -2347 c64 -130 177 -223 311 -255 27 -6 55 -13
62 -15 9 -3 12 -59 12 -239 l0 -236 -26 -26 c-24 -24 -30 -25 -91 -20 -138 13
-257 97 -320 225 l-38 76 -3 254 -4 254 28 29 c15 16 28 29 29 29 1 0 19 -34
40 -76z"/>
<path fill="#CD7537" d="M342 4580 c-12 -11 -24 -31 -27 -43 -14 -53 5 -69 237 -202 122 -71
235 -131 249 -133 62 -9 107 80 64 128 -28 31 -450 270 -477 270 -13 0 -34 -9
-46 -20z"/>
<path fill="#CD7537" d="M4491 4475 c-118 -68 -223 -133 -234 -144 -46 -46 -2 -138 62 -129
14 2 126 61 247 131 232 133 256 154 239 207 -10 31 -46 60 -74 60 -15 -1
-122 -56 -240 -125z"/>
<path fill="#CD7537" d="M185 3415 c-16 -15 -25 -36 -25 -55 0 -19 9 -40 25 -55 l24 -25 271
0 271 0 24 25 c33 32 33 78 0 110 l-24 25 -271 0 -271 0 -24 -25z"/>
<path fill="#CD7537" d="M4345 3415 c-16 -15 -25 -36 -25 -55 0 -19 9 -40 25 -55 l24 -25 271
0 271 0 24 25 c16 15 25 36 25 55 0 19 -9 40 -25 55 l-24 25 -271 0 -271 0
-24 -25z"/>
<path fill="#CD7537" d="M560 2390 c-234 -134 -259 -155 -246 -206 9 -35 42 -64 73 -64 33 0
455 242 483 277 23 29 24 42 9 76 -12 26 -47 47 -77 47 -9 0 -118 -58 -242
-130z"/>
<path fill="#CD7537" d="M4273 2508 c-26 -13 -47 -59 -39 -86 4 -10 16 -28 29 -39 43 -39 444
-263 471 -263 30 0 63 29 72 64 12 51 -14 73 -247 207 -123 71 -233 129 -244
128 -11 0 -30 -5 -42 -11z"/>
</g>
</svg>
