<svg version="1.0" xmlns="http://www.w3.org/2000/svg"
 width="512.000000pt" height="512.000000pt" viewBox="0 0 512.000000 512.000000"
 preserveAspectRatio="xMidYMid meet">

<g transform="translate(0.000000,512.000000) scale(0.100000,-0.100000)"
fill="#000000" stroke="none">
<path fill="#CD7537" d="M2398 5113 c-67 -7 -101 -80 -58 -123 24 -24 16 -23 175 -21 353 6
687 -89 983 -278 43 -28 84 -51 90 -51 26 0 61 25 72 49 19 46 -2 76 -87 132
-236 153 -531 257 -815 288 -92 10 -279 12 -360 4z"/>
<path fill="#CD7537" d="M1958 5020 c-159 -54 -414 -185 -463 -240 -23 -26 -24 -74 0 -100 28
-31 70 -25 140 19 93 59 249 135 350 170 123 44 135 53 135 100 0 39 -18 64
-55 75 -11 3 -59 -8 -107 -24z"/>
<path  fill="#CD7537" d="M3979 4822 c-28 -14 -45 -38 -98 -143 l-65 -127 -125 -17 c-70 -10
-139 -24 -154 -32 -34 -17 -61 -75 -52 -112 3 -14 51 -72 107 -127 l100 -102
-22 -131 c-24 -143 -22 -170 15 -207 41 -41 88 -33 222 38 l117 62 116 -62
c138 -73 180 -79 222 -34 14 15 28 36 32 47 3 11 -3 72 -14 135 -11 63 -20
125 -20 136 0 14 35 56 100 121 91 89 100 102 100 135 0 52 -18 85 -54 101
-17 8 -87 23 -154 33 l-124 18 -64 127 c-35 71 -72 132 -81 137 -39 20 -70 21
-104 4z m161 -394 c14 -10 59 -22 105 -28 44 -6 86 -13 94 -16 9 -3 -9 -28
-57 -78 -39 -40 -74 -85 -78 -100 -3 -15 1 -68 10 -118 9 -50 15 -93 12 -95
-2 -3 -44 16 -92 41 -48 25 -99 46 -113 46 -13 0 -62 -21 -109 -46 -46 -25
-86 -43 -89 -40 -3 3 0 43 8 88 21 129 20 132 -68 220 -51 51 -72 79 -62 82 8
2 52 9 99 16 47 6 95 18 108 26 12 8 43 56 68 106 l46 92 47 -89 c25 -49 57
-97 71 -107z"/>
<path fill="#CD7537" d="M894 4781 c-289 -83 -424 -423 -271 -684 36 -61 133 -148 201 -180
228 -108 504 -10 612 217 73 153 61 322 -32 461 -109 165 -318 241 -510 186z
m261 -162 c128 -61 199 -199 173 -339 -19 -104 -80 -182 -178 -229 -73 -34
-182 -36 -251 -4 -114 52 -189 164 -189 284 0 36 7 86 16 112 28 82 120 167
214 198 46 15 161 4 215 -22z"/>
<path fill="#CD7537" d="M2275 4135 c-22 -21 -25 -33 -25 -99 l0 -76 -42 -21 c-24 -12 -55
-30 -70 -41 l-27 -19 -68 37 c-74 41 -106 41 -140 5 -10 -11 -71 -112 -137
-226 -105 -183 -117 -209 -112 -239 7 -38 14 -45 87 -90 l51 -31 2 -79 1 -79
-53 -29 c-68 -39 -95 -74 -89 -113 6 -32 216 -405 250 -442 30 -33 84 -30 149
8 l53 31 60 -32 c88 -48 85 -44 85 -125 0 -69 2 -75 31 -99 l31 -26 248 0 248
0 31 26 c28 23 30 30 33 102 l3 76 69 39 68 39 58 -31 c70 -37 118 -40 147 -8
34 37 244 410 250 442 6 39 -21 74 -89 113 l-53 29 1 79 2 79 51 31 c73 45 80
52 87 90 5 30 -7 56 -112 239 -66 114 -127 215 -137 226 -34 36 -66 36 -140
-5 l-68 -37 -27 19 c-15 11 -46 29 -69 41 l-43 21 0 76 c0 66 -3 78 -25 99
l-24 25 -261 0 -261 0 -24 -25z m445 -177 c0 -77 15 -98 100 -143 42 -22 93
-52 115 -67 49 -35 87 -35 144 -3 23 14 47 25 51 25 13 0 162 -269 155 -280
-3 -6 -23 -19 -44 -29 -64 -33 -66 -39 -67 -200 -1 -166 2 -173 71 -211 25
-13 45 -28 45 -33 0 -6 -146 -266 -154 -275 -2 -1 -29 11 -62 28 -69 37 -82
35 -163 -20 -31 -21 -77 -48 -101 -58 -67 -29 -83 -52 -88 -128 l-4 -64 -158
0 -158 0 -4 64 c-5 76 -21 99 -88 128 -24 10 -70 37 -101 58 -81 55 -94 56
-163 20 -32 -17 -59 -30 -61 -28 -11 13 -155 268 -155 275 0 5 20 20 45 33 69
38 72 45 71 211 -1 162 -1 163 -72 204 -24 14 -44 29 -44 32 0 13 153 273 160
273 4 0 28 -11 51 -25 57 -32 95 -32 144 3 22 15 73 45 115 67 85 45 100 66
100 143 l0 52 160 0 160 0 0 -52z"/>
<path fill="#CD7537" d="M2310 3661 c-266 -168 -300 -547 -68 -756 144 -129 352 -159 525 -75
288 141 358 519 137 750 -101 106 -182 137 -223 84 -37 -47 -23 -92 38 -123
56 -29 127 -112 147 -174 28 -83 22 -176 -15 -252 -96 -195 -347 -242 -514
-96 -20 18 -51 61 -68 96 -37 76 -43 169 -15 252 20 62 91 145 147 174 61 31
75 76 38 123 -27 35 -71 34 -129 -3z"/>
<path fill="#CD7537" d="M792 3773 c-22 -9 -40 -57 -62 -169 -40 -202 -37 -598 6 -702 24 -59
92 -64 128 -9 15 21 14 33 0 128 -22 142 -14 434 15 569 12 52 21 107 21 122
0 45 -61 80 -108 61z"/>
<path fill="#CD7537" d="M4278 3664 c-36 -19 -42 -48 -28 -120 21 -107 24 -395 6 -523 -17
-111 -17 -115 2 -140 26 -36 80 -40 109 -9 37 40 57 214 50 443 -6 168 -11
225 -32 312 -3 13 -19 29 -35 38 -35 18 -38 18 -72 -1z"/>
<path fill="#CD7537" d="M935 2781 c-37 -16 -60 -54 -243 -383 -195 -350 -200 -363 -162 -426
37 -60 50 -62 452 -61 254 0 373 4 398 12 49 17 83 71 77 122 -5 46 -341 660
-387 709 -30 30 -96 44 -135 27z m209 -450 c80 -145 146 -265 146 -267 0 -2
-137 -4 -305 -4 -168 0 -305 2 -305 5 0 16 304 545 310 538 4 -4 73 -127 154
-272z"/>
<path fill="#CD7537" d="M3831 2712 c-69 -37 -71 -49 -71 -405 0 -338 3 -360 50 -402 21 -19
38 -20 371 -23 l348 -3 38 35 38 34 3 344 c2 330 2 344 -18 376 -36 59 -54 62
-407 62 -289 0 -321 -2 -352 -18z m629 -407 l0 -275 -275 0 -275 0 0 275 0
275 275 0 275 0 0 -275z"/>
<path fill="#CD7537" d="M2440 1871 c-142 -46 -230 -130 -280 -268 -19 -52 -22 -77 -18 -155
3 -79 9 -104 36 -161 123 -264 468 -326 678 -122 81 79 117 163 122 283 4 78
1 103 -18 155 -27 74 -64 130 -119 180 -106 96 -267 131 -401 88z m212 -147
c106 -36 178 -139 178 -253 -1 -119 -50 -200 -148 -248 -145 -71 -325 -2 -378
145 -7 20 -13 66 -14 103 -1 186 183 315 362 253z"/>
<path fill="#CD7537" d="M3544 1855 c-78 -57 -231 -140 -329 -180 -49 -20 -96 -44 -102 -53
-34 -42 1 -122 53 -122 51 0 318 130 445 218 70 48 96 85 84 121 -19 62 -78
68 -151 16z"/>
<path fill="#CD7537" d="M1509 1856 c-13 -6 -30 -24 -39 -39 -13 -24 -13 -30 0 -54 19 -35 95
-87 230 -157 123 -64 225 -106 255 -106 51 0 86 80 53 122 -7 9 -62 37 -123
62 -60 26 -157 75 -215 110 -126 76 -131 77 -161 62z"/>
<path fill="#CD7537" d="M1964 854 c-58 -21 -120 -77 -152 -138 l-27 -51 0 -313 0 -314 24
-19 c21 -17 41 -19 225 -19 149 1 205 4 218 14 25 19 37 57 26 85 -17 46 -33
50 -195 51 l-153 0 0 230 c0 258 5 285 62 320 31 19 50 20 286 20 l253 0 24
25 c14 13 25 36 25 50 0 14 -11 37 -25 50 l-24 25 -263 -1 c-203 0 -272 -4
-304 -15z"/>
<path fill="#CD7537" d="M2805 845 c-14 -13 -25 -36 -25 -50 0 -14 11 -37 25 -50 23 -24 29
-25 157 -25 116 0 137 -3 166 -20 57 -35 62 -62 62 -320 l0 -230 -328 0 c-316
0 -329 -1 -350 -20 -14 -14 -22 -33 -22 -55 0 -22 8 -41 22 -55 21 -19 33 -20
399 -20 356 0 378 1 400 19 l24 19 0 314 0 313 -27 51 c-15 29 -46 68 -69 87
-64 55 -112 67 -271 67 -134 0 -140 -1 -163 -25z"/>
</g>
</svg>
