<?xml version="1.0" standalone="no"?>
<!DOCTYPE svg PUBLIC "-//W3C//DTD SVG 20010904//EN"
 "http://www.w3.org/TR/2001/REC-SVG-20010904/DTD/svg10.dtd">
<svg version="1.0" xmlns="http://www.w3.org/2000/svg"
 width="512.000000pt" height="512.000000pt" viewBox="0 0 512.000000 512.000000"
 preserveAspectRatio="xMidYMid meet">

<g transform="translate(0.000000,512.000000) scale(0.100000,-0.100000)"
fill="#000000" stroke="none">
<path fill="#CD7537" d="M0 4235 l0 -875 120 0 120 0 0 -135 c0 -131 1 -137 25 -160 51 -52
81 -35 265 149 l145 146 457 0 458 0 0 80 0 81 -490 -3 -490 -3 -104 -104
-105 -105 -3 105 -3 104 -117 3 -118 3 0 714 0 715 1115 0 1115 0 0 -395 0
-395 80 0 80 0 0 475 0 475 -1275 0 -1275 0 0 -875z"/>
<path fill="#CD7537" d="M480 4555 l0 -75 795 0 795 0 0 75 0 75 -795 0 -795 0 0 -75z"/>
<path fill="#CD7537" d="M3030 4195 l0 -195 80 0 80 0 0 120 0 120 878 -2 877 -3 3 -477 2
-478 -120 0 -120 0 0 -107 0 -108 -97 97 c-54 53 -111 102 -126 107 -18 7
-196 11 -503 11 l-474 0 0 -80 0 -80 462 0 462 0 161 -160 c176 -174 192 -184
240 -135 24 23 25 29 25 160 l0 135 120 0 120 0 0 635 0 635 -1035 0 -1035 0
0 -195z"/>
<path fill="#CD7537" d="M480 4235 l0 -75 795 0 795 0 0 75 0 75 -795 0 -795 0 0 -75z"/>
<path fill="#CD7537" d="M480 3915 l0 -75 555 0 555 0 0 75 0 75 -555 0 -555 0 0 -75z"/>
<path fill="#CD7537" d="M2375 3974 c-251 -56 -463 -234 -560 -471 -46 -114 -55 -192 -55
-478 0 -281 1 -286 49 -340 21 -23 30 -48 40 -105 25 -155 98 -317 191 -423
l42 -47 -3 -155 c-4 -135 -6 -157 -24 -179 -12 -16 -97 -64 -220 -124 l-200
-99 -120 59 c-66 32 -128 68 -137 81 -10 12 -21 43 -24 68 -6 42 -3 50 31 94
96 126 125 234 125 461 0 182 -13 245 -69 333 -93 144 -237 223 -406 224 -221
0 -409 -149 -460 -365 -19 -83 -19 -293 0 -394 17 -87 66 -198 114 -258 35
-44 41 -97 16 -149 -13 -28 -49 -49 -272 -161 -217 -108 -265 -137 -309 -181
-99 -99 -127 -191 -122 -399 l3 -129 125 -58 c213 -99 447 -164 655 -184 39
-4 78 -9 88 -11 16 -5 17 -27 17 -290 l0 -284 74 0 74 0 4 412 c3 401 4 415
27 477 44 124 118 210 265 308 93 62 673 356 686 348 5 -3 10 -14 10 -23 0
-39 70 -161 128 -223 223 -238 575 -241 804 -7 46 48 128 193 128 229 0 10 5
21 10 24 13 8 593 -286 686 -348 147 -98 221 -184 265 -308 23 -62 24 -76 27
-476 l4 -413 74 0 74 0 2 283 3 282 95 11 c244 29 442 88 734 219 l58 26 -4
162 c-6 203 -23 259 -105 348 -52 55 -74 69 -324 194 -165 83 -274 144 -283
158 -8 12 -17 43 -21 68 -6 43 -4 50 31 95 20 27 50 76 65 109 49 104 59 164
59 346 0 239 -28 318 -155 438 -130 123 -320 158 -495 92 -114 -43 -239 -176
-276 -294 -25 -81 -31 -322 -9 -428 19 -94 67 -205 114 -263 36 -45 41 -97 15
-151 -13 -27 -34 -41 -135 -89 -66 -31 -125 -56 -133 -56 -7 0 -102 44 -212
99 -158 78 -202 104 -212 125 -8 17 -12 80 -12 177 l0 150 39 47 c92 109 160
259 186 408 11 66 21 95 40 114 50 52 55 82 55 324 0 256 -10 347 -49 463 -48
141 -156 286 -281 379 -52 38 -156 89 -235 114 -93 30 -306 37 -410 14z m361
-165 c202 -61 361 -212 423 -403 20 -61 38 -166 29 -166 -3 0 -25 7 -49 16
-24 8 -84 18 -134 21 -104 7 -128 23 -138 91 -8 46 -32 65 -81 64 -23 -1 -47
-18 -105 -76 l-76 -75 -300 -3 c-257 -3 -306 -6 -339 -21 -52 -23 -56 -22 -50
16 16 94 30 140 66 216 84 176 258 303 466 341 71 13 209 3 288 -21z m58 -626
c55 -46 104 -63 189 -63 91 0 142 -21 179 -72 20 -29 23 -47 26 -139 l4 -106
-30 -12 c-35 -15 -52 -48 -52 -101 0 -21 -7 -70 -15 -108 -68 -327 -287 -517
-575 -499 -284 19 -479 229 -520 562 -14 112 -22 133 -60 147 l-30 10 0 88 c0
99 9 132 48 174 51 54 65 56 397 56 l306 0 47 45 c26 24 49 45 51 45 2 0 17
-12 35 -27z m-1648 -484 c76 -29 136 -86 177 -168 32 -65 32 -66 32 -216 -1
-176 -16 -245 -77 -335 -105 -158 -292 -186 -428 -63 -56 50 -89 107 -115 196
-13 46 -16 90 -13 220 4 181 13 211 84 282 100 100 218 129 340 84z m3029 0
c68 -25 117 -67 161 -135 45 -70 58 -148 51 -297 -7 -166 -38 -255 -116 -335
-178 -184 -453 -74 -511 204 -7 33 -10 117 -8 207 3 125 7 158 22 187 42 78
102 132 184 166 72 30 144 31 217 3z m-1850 -734 c158 -60 343 -49 528 30 15
6 17 0 17 -73 0 -109 15 -178 51 -236 29 -47 30 -52 19 -94 -51 -204 -246
-334 -449 -301 -158 25 -295 154 -330 311 -9 37 -7 46 10 64 40 43 59 117 59
230 0 97 1 106 18 99 9 -4 44 -18 77 -30z m-1350 -273 c59 -7 141 -2 201 12
29 7 31 6 42 -31 20 -68 64 -115 151 -163 45 -25 81 -47 81 -50 0 -3 -33 -23
-73 -44 -228 -123 -357 -237 -426 -376 -42 -87 -71 -193 -71 -267 l0 -43 -47
6 c-189 23 -414 85 -585 160 l-88 39 0 96 c0 60 6 112 15 138 31 89 49 102
335 246 303 152 311 158 354 279 5 14 12 17 29 11 12 -3 49 -9 82 -13z m3030
0 c60 -7 141 -2 202 13 30 7 32 5 41 -28 6 -20 24 -56 41 -81 30 -43 49 -55
300 -180 341 -172 349 -180 359 -377 l5 -106 -119 -50 c-194 -83 -381 -134
-545 -149 l-69 -7 0 54 c0 112 -50 249 -127 350 -68 90 -204 195 -361 280 -45
24 -82 46 -82 49 0 3 29 20 65 38 35 17 82 47 104 67 36 33 45 47 71 119 8 23
14 27 33 21 12 -3 49 -9 82 -13z"/>
<path fill="#CD7537" d="M3670 3755 l0 -75 80 0 80 0 0 75 0 75 -80 0 -80 0 0 -75z"/>
<path fill="#CD7537" d="M3990 3755 l0 -75 80 0 80 0 0 75 0 75 -80 0 -80 0 0 -75z"/>
<path fill="#CD7537" d="M4310 3755 l0 -75 75 0 75 0 0 75 0 75 -75 0 -75 0 0 -75z"/>
<path fill="#CD7537" d="M1520 245 l0 -235 75 0 75 0 0 235 0 235 -75 0 -75 0 0 -235z"/>
<path fill="#CD7537" d="M3430 245 l0 -235 80 0 80 0 0 235 0 235 -80 0 -80 0 0 -235z"/>
</g>
</svg>
