<?xml version="1.0" standalone="no"?>
<!DOCTYPE svg PUBLIC "-//W3C//DTD SVG 20010904//EN"
 "http://www.w3.org/TR/2001/REC-SVG-20010904/DTD/svg10.dtd">
<svg version="1.0" xmlns="http://www.w3.org/2000/svg"
 width="512.000000pt" height="512.000000pt" viewBox="0 0 512.000000 512.000000"
 preserveAspectRatio="xMidYMid meet">

<g transform="translate(0.000000,512.000000) scale(0.100000,-0.100000)"
fill="#000000" stroke="none">
<path fill="#CD7537" d="M2460 5115 c-8 -2 -49 -9 -90 -15 -222 -37 -465 -169 -620 -337 -116
-127 -207 -290 -254 -456 -42 -145 -59 -338 -35 -391 22 -47 93 -55 126 -15 5
8 13 66 16 129 12 222 83 416 213 579 233 290 625 422 984 331 102 -26 250
-94 334 -154 75 -53 187 -171 239 -249 202 -304 213 -710 29 -1022 -127 -216
-320 -366 -568 -441 -80 -25 -107 -28 -268 -31 -150 -2 -182 -5 -198 -19 -26
-24 -24 -85 3 -110 19 -17 38 -19 188 -19 91 0 181 3 199 7 l32 8 0 -100 0
-99 -404 -3 c-393 -3 -405 -4 -433 -24 -15 -12 -37 -36 -48 -55 -18 -31 -20
-55 -23 -277 l-4 -242 -184 0 c-101 0 -184 4 -184 9 0 5 37 109 82 232 91 252
99 301 60 376 -40 76 -111 113 -219 113 l-64 0 53 60 53 60 300 0 c341 1 351
2 417 80 82 95 70 238 -27 318 -52 42 -96 52 -242 52 l-130 0 -5 68 c-6 79
-24 118 -79 172 -56 54 -111 73 -197 68 -55 -3 -79 -10 -118 -34 -41 -25 -102
-96 -116 -133 -1 -6 -31 -14 -66 -20 -103 -16 -143 -46 -328 -242 -258 -273
-283 -324 -293 -614 l-7 -180 -202 -468 c-111 -258 -202 -482 -202 -498 0 -19
12 -42 35 -68 l35 -38 0 -637 0 -636 -100 0 c-94 0 -103 -2 -125 -25 -32 -31
-32 -69 0 -100 l24 -25 2511 0 2511 0 24 25 c32 31 32 69 0 100 -21 22 -33 25
-90 25 l-65 0 0 1454 c0 1370 -1 1455 -18 1474 -9 12 -29 24 -44 28 -22 5 -33
0 -58 -24 l-30 -30 0 -1451 0 -1451 -425 0 -425 0 0 1815 0 1815 425 0 425 0
0 -224 c0 -211 1 -225 21 -250 26 -33 79 -36 109 -6 20 20 21 30 18 285 l-3
265 -38 37 -37 38 -483 3 -483 3 -35 -23 c-61 -41 -69 -72 -69 -255 l0 -163
-114 0 -114 0 34 78 c134 313 112 690 -59 987 -174 302 -476 506 -821 554 -70
10 -218 13 -256 6z m-854 -1579 c28 -28 34 -42 34 -76 0 -34 -6 -48 -34 -76
-28 -28 -42 -34 -76 -34 -34 0 -48 6 -76 34 -28 28 -34 42 -34 76 0 34 6 48
34 76 28 28 42 34 76 34 34 0 48 -6 76 -34z m-316 -186 c47 -92 140 -150 240
-150 53 0 133 24 151 46 9 11 48 14 191 14 177 0 179 0 203 -25 30 -29 32 -64
5 -98 l-21 -26 -317 -3 c-290 -3 -319 -5 -345 -22 -15 -10 -70 -68 -122 -128
-88 -101 -95 -112 -95 -151 0 -90 46 -117 200 -117 97 0 112 -2 130 -20 11
-11 20 -26 20 -33 0 -13 -173 -498 -185 -516 -6 -10 -105 -16 -105 -7 0 2 20
69 45 148 49 157 52 176 30 218 -31 61 -56 70 -187 70 -89 0 -127 -4 -149 -16
-27 -13 -62 -79 -265 -490 l-234 -474 -66 0 c-49 0 -65 3 -61 13 3 6 90 208
193 447 l188 435 6 185 c9 274 16 288 256 540 162 171 173 180 218 191 51 12
55 10 76 -31z m2500 -1605 l0 -1595 -375 0 -375 0 -2 846 -3 846 -24 19 c-31
25 -69 24 -98 -3 l-23 -21 0 -844 0 -843 -355 0 -355 0 0 908 c0 597 -4 920
-11 944 -14 51 -46 86 -94 102 l-40 14 0 219 0 218 428 3 427 2 0 -234 0 -235
26 -20 c30 -24 43 -26 77 -10 43 19 47 46 47 290 0 257 -4 277 -64 325 l-36
29 0 121 0 121 84 37 c152 68 330 204 411 315 l30 41 163 0 162 0 0 -1595z
m-2626 633 c-47 -149 -84 -272 -84 -280 0 -5 -12 -26 -27 -45 l-28 -36 -3
-224 -3 -223 -186 0 c-108 0 -183 4 -181 9 2 5 93 192 203 415 l200 405 58 1
c56 0 58 -1 51 -22z m866 -1323 l0 -905 -315 0 -315 0 0 285 0 286 -25 24
c-31 32 -69 32 -100 0 l-25 -24 0 -286 0 -285 -425 0 -425 0 0 635 0 635 425
0 425 0 0 -215 c0 -216 0 -216 25 -240 13 -14 36 -25 50 -25 14 0 37 11 50 25
l25 24 0 233 c0 202 -2 238 -18 267 -27 54 -64 75 -140 81 l-67 5 -3 193 -2
192 430 0 430 0 0 -905z"/>
</g>
</svg>
