<svg width="80" height="80" viewBox="0 0 80 80" fill="none" xmlns="http://www.w3.org/2000/svg">
<rect width="80" height="80" rx="40" fill="#171717"/>
<path d="M30.3516 33.7109L29.1992 34.4727C28.4961 33.431 27.5781 32.6107 26.4453 32.0117C25.3255 31.3997 24.1081 31.0938 22.793 31.0938C20.6576 31.0938 18.8346 31.849 17.3242 33.3594C15.8138 34.8698 15.0586 36.6927 15.0586 38.8281C15.0586 40.9635 15.8138 42.7865 17.3242 44.2969C18.8346 45.8073 20.6576 46.5625 22.793 46.5625C24.1081 46.5625 25.3255 46.2565 26.4453 45.6445C27.5781 45.0326 28.4961 44.2057 29.1992 43.1641L30.332 43.9844C29.4987 45.2083 28.418 46.1784 27.0898 46.8945C25.7617 47.6107 24.3294 47.9688 22.793 47.9688C21.556 47.9688 20.3711 47.7279 19.2383 47.2461C18.1185 46.7643 17.1484 46.1133 16.3281 45.293C15.5078 44.4727 14.8568 43.5026 14.375 42.3828C13.8932 41.25 13.6523 40.0651 13.6523 38.8281C13.6523 37.5911 13.8932 36.4128 14.375 35.293C14.8568 34.1602 15.5078 33.1836 16.3281 32.3633C17.1484 31.543 18.1185 30.8919 19.2383 30.4102C20.3711 29.9284 21.556 29.6875 22.793 29.6875C24.3424 29.6875 25.7812 30.0521 27.1094 30.7812C28.4375 31.4974 29.5182 32.474 30.3516 33.7109ZM32.6758 32.1094L31.5039 32.8711C30.5404 31.4648 29.2904 30.3516 27.7539 29.5312C26.2305 28.6979 24.5768 28.2812 22.793 28.2812C20.8789 28.2812 19.1146 28.7565 17.5 29.707C15.8854 30.6445 14.6029 31.9206 13.6523 33.5352C12.7148 35.1497 12.2461 36.9141 12.2461 38.8281C12.2461 40.7422 12.7148 42.5065 13.6523 44.1211C14.6029 45.7357 15.8854 47.0182 17.5 47.9688C19.1146 48.9062 20.8789 49.375 22.793 49.375C24.5768 49.375 26.237 48.9583 27.7734 48.125C29.3099 47.2917 30.5599 46.1654 31.5234 44.7461L32.6758 45.5469C31.582 47.1615 30.1628 48.4375 28.418 49.375C26.6862 50.3125 24.8112 50.7812 22.793 50.7812C20.6315 50.7812 18.6328 50.2474 16.7969 49.1797C14.9609 48.112 13.5091 46.6602 12.4414 44.8242C11.3737 42.9883 10.8398 40.9896 10.8398 38.8281C10.8398 36.6667 11.3737 34.668 12.4414 32.832C13.5091 30.9961 14.9609 29.5443 16.7969 28.4766C18.6328 27.4089 20.6315 26.875 22.793 26.875C24.8112 26.875 26.6862 27.3438 28.418 28.2812C30.1628 29.2188 31.582 30.4948 32.6758 32.1094ZM35.0195 30.5469L33.8477 31.3086C32.6237 29.5117 31.0352 28.0924 29.082 27.0508C27.1419 25.9961 25.0456 25.4688 22.793 25.4688C20.9831 25.4688 19.2513 25.8203 17.5977 26.5234C15.944 27.2266 14.5182 28.1771 13.3203 29.375C12.1354 30.5599 11.1914 31.9792 10.4883 33.6328C9.78516 35.2865 9.43359 37.0182 9.43359 38.8281C9.43359 40.638 9.78516 42.3698 10.4883 44.0234C11.1914 45.6771 12.1354 47.1029 13.3203 48.3008C14.5182 49.4857 15.944 50.4297 17.5977 51.1328C19.2513 51.8359 20.9831 52.1875 22.793 52.1875C25.0586 52.1875 27.1615 51.6602 29.1016 50.6055C31.0417 49.5508 32.6237 48.125 33.8477 46.3281L34.9805 47.168C33.6263 49.1471 31.875 50.7161 29.7266 51.875C27.5911 53.0208 25.2799 53.5938 22.793 53.5938C20.1237 53.5938 17.6562 52.9362 15.3906 51.6211C13.125 50.293 11.3281 48.4961 10 46.2305C8.6849 43.9648 8.02734 41.4974 8.02734 38.8281C8.02734 36.1589 8.6849 33.6914 10 31.4258C11.3281 29.1602 13.125 27.3698 15.3906 26.0547C17.6562 24.7266 20.1237 24.0625 22.793 24.0625C25.293 24.0625 27.6172 24.6484 29.7656 25.8203C31.9141 26.9792 33.6654 28.5547 35.0195 30.5469ZM37.3242 28.9453L36.1523 29.707C34.668 27.5326 32.7474 25.8138 30.3906 24.5508C28.0469 23.2878 25.5143 22.6562 22.793 22.6562C20.6055 22.6562 18.5091 23.0859 16.5039 23.9453C14.5117 24.7917 12.793 25.9375 11.3477 27.3828C9.90234 28.8281 8.75 30.5534 7.89062 32.5586C7.04427 34.5508 6.62109 36.6406 6.62109 38.8281C6.62109 41.0156 7.04427 43.112 7.89062 45.1172C8.75 47.1094 9.90234 48.8281 11.3477 50.2734C12.793 51.7188 14.5117 52.8711 16.5039 53.7305C18.5091 54.5768 20.6055 55 22.793 55C25.5143 55 28.0534 54.362 30.4102 53.0859C32.7669 51.8099 34.6875 50.0846 36.1719 47.9102L37.3047 48.7695C35.6901 51.1133 33.6068 52.9753 31.0547 54.3555C28.5026 55.7227 25.7487 56.4062 22.793 56.4062C20.4102 56.4062 18.1315 55.9375 15.957 55C13.7956 54.0755 11.9271 52.832 10.3516 51.2695C8.78906 49.694 7.53906 47.8255 6.60156 45.6641C5.67708 43.4896 5.21484 41.2109 5.21484 38.8281C5.21484 36.4453 5.67708 34.1732 6.60156 32.0117C7.53906 29.8372 8.78906 27.9688 10.3516 26.4062C11.9271 24.8307 13.7956 23.5807 15.957 22.6562C18.1315 21.7188 20.4102 21.25 22.793 21.25C25.7617 21.25 28.5221 21.9401 31.0742 23.3203C33.6263 24.7005 35.7096 26.5755 37.3242 28.9453ZM38.9453 22.6562H40.4688L52.5 53.1055L64.5312 22.6562H66.0352L53.2617 55H51.7383L38.9453 22.6562ZM53.4766 47.9688L52.6758 49.7656L41.9727 22.6562H43.4766L53.4766 47.9688ZM54.9805 44.1211L54.2383 46.0547L45 22.6562H46.5234L54.9805 44.1211ZM56.4648 40.2148L55.7227 42.1875L48.0273 22.6562H49.5312L56.4648 40.2148ZM73.5938 22.6562H75.1172L62.3242 55H60.8203L73.5938 22.6562ZM70.5859 22.6562H72.0898L59.2969 55H57.793L70.5859 22.6562ZM67.5391 22.6562H69.0625L56.2695 55H54.7656L67.5391 22.6562Z" fill="white"/>
</svg>
